
<svg viewBox="0 0 270.9 270.9">

<g>
	<path fill="#ffffff" stroke="#231815" stroke-miterlimit="10" d="M42.8,0.5h185.4c23.4,0,42.3,18.9,42.3,42.3v185.4c0,23.4-18.9,42.3-42.3,42.3H42.8
		c-23.4,0-42.3-18.9-42.3-42.3V42.8C0.5,19.4,19.4,0.5,42.8,0.5z"/>
	<rect x="9.6" y="42.5" fill="#ffffff" stroke="#231815" stroke-miterlimit="10" width="251" height="139.9"/>
	<path fill="#231815" d="M145.1,62.1L145.1,62.1c27.8,0,50.3,22.5,50.3,50.3l0,0c0,27.8-22.5,50.3-50.3,50.3l0,0
		c-27.8,0-50.3-22.5-50.3-50.3l0,0C94.8,84.7,117.4,62.1,145.1,62.1z"/>
	<rect x="201.1" y="53.6" fill="#f7f8f815" width="48.4" height="24.8"/>
	<rect x="35.8" y="31.7" fill="#231815" width="48.4" height="24.8"/>
	<path fill="#231815" d="M145.5,88.3L145.5,88.3c13.7,0,24.8,11.1,24.8,24.8l0,0c0,13.7-11.1,24.8-24.8,24.8h0
		c-13.7,0-24.8-11.1-24.8-24.8l0,0C120.7,99.4,131.8,88.3,145.5,88.3z"/>
	<path fill="none" stroke="#231815" stroke-miterlimit="10" d="M145.5,70.7L145.5,70.7c23.5,0,42.5,19,42.5,42.5v0c0,23.5-19,42.5-42.5,42.5h0c-23.5,0-42.5-19-42.5-42.5v0
		C103,89.7,122,70.7,145.5,70.7z"/>
	<path fill="#f7f8f8" stroke="#231815" stroke-miterlimit="10" d="M145.5,99L145.5,99c7.9,0,14.2,6.4,14.2,14.2l0,0c0,7.9-6.4,14.2-14.2,14.2h0c-7.9,0-14.2-6.4-14.2-14.2l0,0
		C131.3,105.3,137.6,99,145.5,99z"/>
	<path fill="#231815" d="M43.3,200.2v38.9h-9.9l-8.3-29.6v29.6h-7v-38.9h9.4l8.8,29.6v-29.6H43.3z"/>
	<path fill="#231815" d="M74.1,227c0,3.9-0.8,6.9-2.5,9c-2,2.5-5.3,3.7-9.9,3.7c-4.7,0-8.1-1.1-10-3.2c-1.8-1.9-2.7-5.1-2.7-9.6v-8
		c0-3.8,0.9-6.7,2.7-8.8c2.1-2.4,5.5-3.5,10-3.5c4.1,0,7.2,1.1,9.3,3.2s3.2,5,3.1,8.6V227z M67.2,218.4c0-2.6-0.4-4.4-1.3-5.4
		s-2.3-1.5-4.3-1.5c-2.2,0-3.7,0.5-4.6,1.4s-1.3,2.6-1.3,5v11.1c0,2.1,0.4,3.6,1.3,4.5s2.4,1.3,4.6,1.3s3.5-0.4,4.3-1.3
		s1.3-2.6,1.3-5.1L67.2,218.4z"/>
	<path fill="#231815" d="M105.9,223.6H87.4v4.9c-0.1,1.7,0.5,3.3,1.6,4.6c1.1,1.2,2.7,1.8,4.3,1.7c1.5,0.1,3-0.4,4.2-1.4
		c1-0.7,1.6-1.9,1.6-3.1v-2.5h6.8v2.3c0.1,2.7-1,5.2-3,6.9c-2.1,1.8-5.2,2.6-9.3,2.6c-4.4,0-7.7-1-9.8-3.1s-3.2-5.1-3.1-9v-9
		c-0.2-3.2,1-6.2,3.2-8.5c2.3-2.3,5.4-3.4,9.5-3.4c4.3,0,7.5,1.1,9.6,3.4c2,2.1,3,5.4,3,9.7L105.9,223.6z M99.1,219v-1.4
		c0.1-1.6-0.5-3.2-1.5-4.4c-1.1-1.2-2.8-1.9-4.4-1.8c-1.6-0.1-3.2,0.5-4.3,1.6c-1,1.2-1.6,2.8-1.5,4.4v1.6H99.1z"/>
	<path fill="#231815" d="M136.1,207.1v32h-6.8v-2.4c-0.8,0.9-1.8,1.7-2.9,2.2c-2,0.6-4,0.9-6.1,0.8c-3.4,0-5.8-1.1-7.1-3.2
		c-1-2-1.5-4.2-1.4-6.4v-22.9h6.9v22.4l-0.1,0.3c0,1.8,0.2,3,0.6,3.6c0.7,1,2.2,1.4,4.5,1.4c2.5,0,4.1-0.5,4.9-1.5
		c0.5-0.6,0.7-1.9,0.7-3.8v-22.4H136.1z"/>
	<path fill="#231815" d="M148.5,200.2v38.9h-6.9v-38.9H148.5z"/>
	<path fill="#231815" d="M173.2,239.1v-25.1h-3.6v-4.6h3.6v-2c-0.2-2,0.5-3.9,1.8-5.4c1.5-1.3,3.5-2,5.5-1.9h0.8c0.6,0,1.1,0,1.6,0
		c0.8,0,1.8,0,3,0v4.9l-4,0.1c-0.8,0-1.4,0.1-1.6,0.4c-0.3,0.6-0.4,1.3-0.4,2v1.7h6v4.6h-5.9V239L173.2,239.1z"/>
	<path fill="#231815" d="M197.3,200.2v5.1h-6.9v-5.1H197.3z M197.3,207.4v31.7h-6.9v-31.7H197.3z"/>
	<path fill="#231815" d="M210,200.2v38.9h-6.9v-38.9H210z"/>
	<path fill="#CF5417" d="M222.6,207.1v2.9c1.3-2.3,3.8-3.6,6.5-3.4c1.6-0.1,3.2,0.2,4.7,0.9c1,0.5,1.8,1.5,2.1,2.6
		c0.7-1,1.6-1.9,2.7-2.6c1.8-0.7,3.8-1,5.7-0.9c2.9,0,5.1,0.8,6.5,2.5c1.4,1.8,2,4.1,1.9,6.4v23.6h-6.8v-21.5c0-1.4-0.1-2.8-0.4-4.2
		c-0.4-1.3-1.7-2.1-3-2c-2.2,0-3.7,0.5-4.3,1.6c-0.5,1.2-0.7,2.4-0.6,3.7l0.1,0.4v22.1h-7v-22.7c0.1-1.2-0.1-2.4-0.5-3.5
		c-0.5-1-1.6-1.5-3.3-1.5c-1.9,0-3.1,0.5-3.6,1.6c-0.4,1.2-0.6,2.4-0.5,3.7v0.4v22.1h-6.8v-32L222.6,207.1z"/>
	<rect x="53.6" y="61.9" fill="#727171" width="2.1" height="102.5"/>
</g>
</svg>
