<svg viewBox="0 0 270.93 270.93">

<g>
    <g>
        <rect fill="#f5d425" stroke="#231815" stroke-miterlimit="10" x="0.5" y="0.5" width="269.93" height="269.93" rx="42.28"/>
        <rect fill="#231815" x="9.65" y="42.53" width="250.98" height="139.87"/>
        <rect fill="#f7f8f8" x="94.82" y="62.13" width="100.65" height="100.65" rx="50.33"/>
        <rect fill="#f7f8f8" x="201.15" y="53.64" width="48.37" height="24.84"/>
        <rect fill="#231815" x="35.79" y="31.74" width="48.37" height="24.84"/>
        <rect fill="#231815" x="120.65" y="88.33" width="49.67" height="49.67" rx="24.84"/>
        <rect fill="none" stroke="#231815" stroke-miterlimit="10" x="103" y="70.69" width="84.97" height="84.97" rx="42.48"/>
        <rect fill="#f7f8f8" stroke="#231815" stroke-miterlimit="10" x="131.27" y="98.96" width="28.43" height="28.43" rx="14.22"/>
        <path fill="#231815" d="M43.32,200.16v38.93H33.38l-8.3-29.58v29.58h-7V200.16h9.39l8.75,29.62V200.16Z"/>
        <path fill="#231815" d="M74.08,227q0,5.91-2.53,9-3,3.68-9.94,3.67-7.11,0-10-3.17-2.68-2.91-2.69-9.58v-8q0-5.73,2.69-8.77,3.18-3.54,10-3.54,6.11,0,9.34,3.22t3.13,8.55Zm-6.86-8.63c0-2.57-.44-4.37-1.34-5.42s-2.25-1.48-4.27-1.48c-2.19,0-3.71.48-4.58,1.44s-1.29,2.64-1.29,5v11.14c0,2.15.43,3.64,1.29,4.48s2.39,1.25,4.58,1.25,3.53-.45,4.32-1.34,1.29-2.63,1.29-5.1Z"/>
        <path fill="#231815" d="M105.89,223.56H87.4v4.92A6.33,6.33,0,0,0,89,233.05a5.6,5.6,0,0,0,4.28,1.7,6.25,6.25,0,0,0,4.17-1.39,3.87,3.87,0,0,0,1.64-3.13v-2.51h6.76V230a8.51,8.51,0,0,1-3,6.94q-3.18,2.64-9.29,2.64-6.66,0-9.84-3.09t-3.14-9V218.5a11.45,11.45,0,0,1,3.19-8.5q3.42-3.39,9.49-3.4,6.41,0,9.59,3.36,3,3.22,3,9.71ZM99.13,219v-1.39a6.3,6.3,0,0,0-1.49-4.39,5.61,5.61,0,0,0-4.42-1.79,5.8,5.8,0,0,0-4.33,1.62,6.2,6.2,0,0,0-1.49,4.38V219Z"/>
        <path fill="#231815" d="M136.11,207.14v32H129.3v-2.38a8.86,8.86,0,0,1-2.93,2.2,18.16,18.16,0,0,1-6.11.76c-3.38,0-5.75-1.08-7.11-3.22a12.41,12.41,0,0,1-1.39-6.45V207.14h6.86v22.37l-.05.31c0,1.82.21,3,.64,3.58.67,1,2.16,1.44,4.48,1.44,2.48,0,4.11-.51,4.87-1.53.5-.65.74-1.92.74-3.8V207.14Z"/>
        <path fill="#231815" d="M148.49,200.16v38.93h-6.86V200.16Z"/>
        <path fill="#231815" d="M173.19,239.09V213.94h-3.58v-4.56h3.58v-2A7.27,7.27,0,0,1,175,202a7.52,7.52,0,0,1,5.52-1.88h.79c.6,0,1.15,0,1.64,0,.83,0,1.83,0,3,0v4.88l-4,.14c-.83,0-1.36.14-1.59.44a3.77,3.77,0,0,0-.35,2v1.7H186v4.56h-5.92v25.15Z"/><path fill="#231815" d="M197.25,200.16v5.06h-6.86v-5.06Zm0,7.2v31.73h-6.86V207.36Z"/>
        <path fill="#231815" d="M210,200.16v38.93h-6.86V200.16Z"/>
        <path fill="#c7241e" d="M222.6,207.14V210a7,7,0,0,1,6.46-3.4,10.43,10.43,0,0,1,4.67.85,4.36,4.36,0,0,1,2.14,2.55,8.9,8.9,0,0,1,2.73-2.55,14.3,14.3,0,0,1,5.72-.85c2.91,0,5.07.84,6.46,2.51a9.64,9.64,0,0,1,1.89,6.4v23.58h-6.81V217.61a15.09,15.09,0,0,0-.45-4.16,2.91,2.91,0,0,0-3-2c-2.22,0-3.66.53-4.33,1.57a7.91,7.91,0,0,0-.59,3.67l.05.36v22.06h-7V216.4a8.36,8.36,0,0,0-.5-3.49c-.53-1-1.64-1.48-3.33-1.48-1.85,0-3.06.53-3.63,1.57a8.51,8.51,0,0,0-.54,3.67l0,.36v22.06h-6.81v-32Z"/>
        <rect fill="#727171" x="53.62" y="61.93" width="2.12" height="102.48" transform="translate(109.37 226.34) rotate(180)"/>
    </g>
    </g>
</svg>